<?xml version="1.0" encoding="UTF-8" standalone="no"?>
<!-- Created with Inkscape (http://www.inkscape.org/) -->

<svg
   xmlns:osb="http://www.openswatchbook.org/uri/2009/osb"
   xmlns:dc="http://purl.org/dc/elements/1.1/"
   xmlns:cc="http://creativecommons.org/ns#"
   xmlns:rdf="http://www.w3.org/1999/02/22-rdf-syntax-ns#"
   xmlns:svg="http://www.w3.org/2000/svg"
   xmlns="http://www.w3.org/2000/svg"
   xmlns:sodipodi="http://sodipodi.sourceforge.net/DTD/sodipodi-0.dtd"
   xmlns:inkscape="http://www.inkscape.org/namespaces/inkscape"
   width="640"
   height="640"
   id="svg2"
   version="1.1"
   inkscape:version="0.48.2 r9819"
   sodipodi:docname="npmPublisherAndGtTagger.svg"
   inkscape:export-filename="C:\Users\Jola\Documents\npmPublisherAndGtTagger.png"
   inkscape:export-xdpi="4.5585952"
   inkscape:export-ydpi="4.5585952">
  <defs
     id="defs4">
    <linearGradient
       id="linearGradient5068"
       osb:paint="solid">
      <stop
         style="stop-color:#48a000;stop-opacity:1;"
         offset="0"
         id="stop5070" />
    </linearGradient>
    <inkscape:perspective
       sodipodi:type="inkscape:persp3d"
       inkscape:vp_x="-118.34991 : 800.41618 : 1"
       inkscape:vp_y="0 : 1576.8638 : 0"
       inkscape:vp_z="1010.5489 : 800.41618 : 1"
       inkscape:persp3d-origin="446.0995 : 523.8442 : 1"
       id="perspective4929" />
  </defs>
  <sodipodi:namedview
     id="base"
     pagecolor="#ffffff"
     bordercolor="#666666"
     borderopacity="1.0"
     inkscape:pageopacity="0.0"
     inkscape:pageshadow="2"
     inkscape:zoom="0.88476621"
     inkscape:cx="343.39921"
     inkscape:cy="371.50165"
     inkscape:document-units="px"
     inkscape:current-layer="layer1"
     showgrid="true"
     showguides="true"
     inkscape:guide-bbox="true"
     inkscape:window-width="1920"
     inkscape:window-height="1027"
     inkscape:window-x="-8"
     inkscape:window-y="-8"
     inkscape:window-maximized="1"
     width="320px"
     fit-margin-top="0"
     fit-margin-left="0"
     fit-margin-right="0"
     fit-margin-bottom="0"
     borderlayer="false">
    <sodipodi:guide
       orientation="-0.70710678,0.70710678"
       position="-956.8923,1164.1571"
       id="guide4997" />
  </sodipodi:namedview>
  <metadata
     id="metadata7">
    <rdf:RDF>
      <cc:Work
         rdf:about="">
        <dc:format>image/svg+xml</dc:format>
        <dc:type
           rdf:resource="http://purl.org/dc/dcmitype/StillImage" />
        <dc:title></dc:title>
      </cc:Work>
    </rdf:RDF>
  </metadata>
  <g
     inkscape:groupmode="layer"
     id="layer2"
     inkscape:label="Background"
     style="display:inline">
    <rect
       style="fill:#ffffff;fill-opacity:1;fill-rule:nonzero;stroke:none"
       id="rect5180"
       width="638.58679"
       height="639.71704"
       x="2.2604842"
       y="1.4132266" />
    <path
       style="fill:none;stroke:none"
       d="m 4.7786879,320.03739 0,-316.4677853 115.5672521,0.1539187 c 63.56199,0.084655 114.29573,0.3682938 112.74165,0.6303079 -23.94723,4.0374362 -39.68571,8.1345557 -58.7536,15.2950337 -55.7111,20.920929 -100.117999,61.661893 -120.797369,110.825155 -9.513895,22.61839 -12.929403,39.53429 -13.057917,64.67162 -0.098,19.16909 1.086115,28.48181 5.689784,44.74844 3.009997,10.63553 9.423568,26.54481 13.097698,32.48968 l 2.33791,3.78282 -3.553976,11.48066 c -4.634806,14.97214 -7.562629,29.7621 -9.194061,46.44397 -0.946406,9.67727 -2.192979,15.69073 -4.411646,21.28176 l -3.092496,7.79305 3.570413,3.58357 c 3.252289,3.26428 3.633511,4.40946 4.278591,12.85286 0.3895,5.09812 2.021925,15.77891 3.627615,23.73509 10.887772,53.94886 42.122395,107.92436 84.753594,146.45984 49.39929,44.65333 108.56881,71.74725 178.57825,81.77156 16.84523,2.41198 61.39179,2.72718 77.42158,0.5478 85.05571,-11.56397 150.45826,-54.99195 183.18018,-121.63356 27.35862,-55.71869 27.50386,-123.42977 0.39172,-182.60992 l -4.95381,-10.81311 9.58714,-23.93484 c 5.27292,-13.16417 9.58714,-24.40492 9.58714,-24.97944 0,-0.57452 -15.72062,-14.53382 -34.9347,-31.02065 l -34.93471,-29.97606 -0.7462,-8.82737 C 516.66432,149.88644 498.9066,111.37156 464.78721,76.924691 449.66715,61.6595 438.72101,52.882332 421.05046,41.85436 409.67896,34.75754 387.83783,24.21684 373.80273,19.052236 357.70729,13.129475 330.81785,6.4026317 315.03014,4.3492934 313.16524,4.1067458 384.75195,3.8320918 474.11171,3.7389512 l 162.4723,-0.1693465 0,316.4677853 0,316.46778 -315.90266,0 -315.9026621,0 0,-316.46778 z"
       id="path5182"
       inkscape:connector-curvature="0" />
  </g>
  <g
     inkscape:label="Layer 1"
     inkscape:groupmode="layer"
     id="layer1"
     transform="translate(-11.178012,-213.66226)"
     style="display:inline">
    <g
       id="g5001"
       transform="matrix(0.94073585,0,0,1.0537472,7.9334767,-39.652509)">
      <path
         transform="matrix(-0.12492623,0.50627201,-0.67999504,-0.09386558,564.77612,262.07034)"
         d="m 399.01025,335.15387 c 9.42042,8.50877 -6.82195,16.89647 -14.14214,15.65736 -19.83726,-3.35791 -24.26817,-28.32297 -17.17257,-43.94165 12.69236,-27.93814 49.08393,-32.98589 73.74114,-18.68779 36.18546,20.98305 41.94472,70.12029 20.20301,103.54065 -28.97828,44.54409 -91.25358,51.00523 -133.34015,21.71822 -52.96165,-36.8547 -60.11813,-112.43288 -23.23344,-163.13965 44.67231,-61.41269 133.63805,-69.26133 192.93915,-24.74865 69.8843,52.45665 78.42355,154.85934 26.26387,222.73865 -60.22041,78.36935 -176.0914,87.59845 -252.53815,27.77909 C 184.86731,408.09953 174.94874,278.73908 242.43667,193.73244 318.14793,98.367839 461.01282,87.759987 554.57383,162.92293 658.44428,246.36804 669.74133,402.74836 586.89856,504.85958 495.7247,617.23962 325.82063,629.22584 215.1624,538.69953 94.269882,439.80085 81.594479,256.36658 179.80723,137.16387 286.42769,7.7565729 483.39723,-5.608029 611.1424,100.29349 749.06633,214.63327 763.12016,425.14218 649.52799,561.42815 527.47087,707.87024 303.41924,722.61333 158.59383,601.32896 3.6323326,471.55612 -11.800046,233.95902 117.1778,80.595299 254.66501,-82.886653 505.80991,-99.008355 667.71097,37.664058 839.71427,182.8645 856.52532,447.55914 712.15742,617.99673"
         sodipodi:t0="0"
         sodipodi:argument="-30.681332"
         sodipodi:radius="421.97302"
         sodipodi:revolution="5"
         sodipodi:expansion="1"
         sodipodi:cy="335.15387"
         sodipodi:cx="399.01025"
         id="path5161"
         style="fill:none;stroke:#000070;stroke-width:6.6107831;stroke-linecap:butt;stroke-linejoin:miter;stroke-miterlimit:4;stroke-opacity:1;stroke-dasharray:none"
         sodipodi:type="spiral" />
      <path
         sodipodi:type="spiral"
         style="fill:none;stroke:#000070;stroke-width:7.63818026;stroke-linecap:butt;stroke-linejoin:miter;stroke-miterlimit:4;stroke-opacity:1;stroke-dasharray:none"
         id="path5159"
         sodipodi:cx="399.01025"
         sodipodi:cy="335.15387"
         sodipodi:expansion="1"
         sodipodi:revolution="5"
         sodipodi:radius="421.97302"
         sodipodi:argument="-30.681332"
         sodipodi:t0="0"
         d="m 399.01025,335.15387 c 9.42042,8.50877 -6.82195,16.89647 -14.14214,15.65736 -19.83726,-3.35791 -24.26817,-28.32297 -17.17257,-43.94165 12.69236,-27.93814 49.08393,-32.98589 73.74114,-18.68779 36.18546,20.98305 41.94472,70.12029 20.20301,103.54065 -28.97828,44.54409 -91.25358,51.00523 -133.34015,21.71822 -52.96165,-36.8547 -60.11813,-112.43288 -23.23344,-163.13965 44.67231,-61.41269 133.63805,-69.26133 192.93915,-24.74865 69.8843,52.45665 78.42355,154.85934 26.26387,222.73865 -60.22041,78.36935 -176.0914,87.59845 -252.53815,27.77909 C 184.86731,408.09953 174.94874,278.73908 242.43667,193.73244 318.14793,98.367839 461.01282,87.759987 554.57383,162.92293 658.44428,246.36804 669.74133,402.74836 586.89856,504.85958 495.7247,617.23962 325.82063,629.22584 215.1624,538.69953 94.269882,439.80085 81.594479,256.36658 179.80723,137.16387 286.42769,7.7565729 483.39723,-5.608029 611.1424,100.29349 749.06633,214.63327 763.12016,425.14218 649.52799,561.42815 527.47087,707.87024 303.41924,722.61333 158.59383,601.32896 3.6323326,471.55612 -11.800046,233.95902 117.1778,80.595299 254.66501,-82.886653 505.80991,-99.008355 667.71097,37.664058 839.71427,182.8645 856.52532,447.55914 712.15742,617.99673"
         transform="matrix(-0.74203541,-0.10028075,0.05112444,-0.5846975,641.081,845.65982)" />
      <g
         id="g5146"
         transform="matrix(1.4556237,0,0,1.265486,572.70144,190.39011)">
        <path
           inkscape:connector-curvature="0"
           id="path5074"
           d="M -20.830176,398.17752 -221.66188,434.04409 -360.66933,311.98946 -298.84507,154.06828 -98.013365,118.20172 40.994084,240.25634 z"
           inkscape:transform-center-y="-10.739414"
           inkscape:transform-center-x="6.7806523"
           style="fill:#d40000;fill-opacity:1;fill-rule:nonzero" />
        <path
           sodipodi:nodetypes="ccccc"
           style="fill:#ffd5d5;fill-opacity:1;fill-rule:nonzero"
           inkscape:transform-center-x="6.3712902"
           inkscape:transform-center-y="-9.2849714"
           d="m -215.41855,417.30636 -129.01634,-110.20578 53.62456,-132.34774 124.7763,108.0797 c 0,0 -48.64291,136.19093 -49.38452,134.47382 z"
           id="path5140"
           inkscape:connector-curvature="0" />
        <path
           inkscape:connector-curvature="0"
           id="path5144"
           d="m -31.943227,389.29825 -167.169063,30.3664 c 0.70346,-0.29526 46.6133,-130.2435 46.6133,-130.2435 L 19.518288,255.5944 z"
           inkscape:transform-center-y="-9.0925187"
           inkscape:transform-center-x="5.6441058"
           style="fill:#ffd5d5;fill-opacity:1;fill-rule:nonzero"
           sodipodi:nodetypes="ccccc" />
      </g>
    </g>
  </g>
</svg>
